#N canvas 952 0 1920 966 12;
#X obj 384 165 receive fondamental;
#X obj 242 349 bng 19 250 50 0 empty empty empty 0 -10 0 12 #fcfcfc #000000 #000000;
#X obj 176 437 line~, f 7;
#X obj 169 504 *~;
#X obj 366 352 osc~;
#X obj 324 589 *~;
#X obj 322 634 dac~;
#X msg 237 410 0 1000;
#X obj 241 379 delay 10;
#X text 60 344 AMplitude;
#X text 437 380 Frequence;
#X obj 682 381 bng 19 250 50 0 empty empty empty 0 -10 0 12 #fcfcfc #000000 #000000;
#X obj 616 469 line~, f 7;
#X obj 609 536 *~;
#X obj 806 384 osc~;
#X obj 764 621 *~;
#X obj 762 666 dac~;
#X msg 677 442 0 1000;
#X obj 681 411 delay 10;
#X obj 977 379 bng 19 250 50 0 empty empty empty 0 -10 0 12 #fcfcfc #000000 #000000;
#X obj 911 467 line~, f 7;
#X obj 904 534 *~;
#X obj 1101 382 osc~;
#X obj 1059 619 *~;
#X obj 1057 664 dac~;
#X msg 972 440 0 1000;
#X obj 976 409 delay 10;
#X obj 1116 333 *~;
#X obj 822 332 *~;
#X obj 344 291 *~;
#X msg 289 245 1;
#X msg 729 228 2;
#X msg 1004 219 3;
#X obj 1255 383 bng 19 250 50 0 empty empty empty 0 -10 0 12 #fcfcfc #000000 #000000;
#X obj 1189 471 line~, f 7;
#X obj 1182 538 *~;
#X obj 1379 386 osc~;
#X obj 1337 623 *~;
#X obj 1335 668 dac~;
#X msg 1250 444 0 1000;
#X obj 1254 413 delay 10;
#X obj 1394 337 *~;
#X obj 1542 381 bng 19 250 50 0 empty empty empty 0 -10 0 12 #fcfcfc #000000 #000000;
#X obj 1476 469 line~, f 7;
#X obj 1469 536 *~;
#X obj 1666 384 osc~;
#X obj 1624 621 *~;
#X obj 1622 666 dac~;
#X msg 1537 442 0 1000;
#X obj 1541 411 delay 10;
#X obj 1681 335 *~;
#X msg 1282 223 4;
#X msg 1569 221 5;
#X obj 167 164 receive amplitude1;
#X obj 653 160 receive amplitude2;
#X obj 936 139 receive amplitude3;
#X obj 1252 130 receive amplitude4;
#X obj 1515 144 receive amplitude5;
#X connect 0 0 29 0;
#X connect 0 0 28 0;
#X connect 0 0 27 0;
#X connect 0 0 41 0;
#X connect 0 0 50 0;
#X connect 1 0 8 0;
#X connect 2 0 3 0;
#X connect 2 0 3 1;
#X connect 3 0 5 1;
#X connect 4 0 5 0;
#X connect 5 0 6 0;
#X connect 7 0 2 0;
#X connect 8 0 7 0;
#X connect 11 0 18 0;
#X connect 12 0 13 0;
#X connect 12 0 13 1;
#X connect 13 0 15 1;
#X connect 14 0 15 0;
#X connect 15 0 16 0;
#X connect 17 0 12 0;
#X connect 18 0 17 0;
#X connect 19 0 26 0;
#X connect 20 0 21 0;
#X connect 20 0 21 1;
#X connect 21 0 23 1;
#X connect 22 0 23 0;
#X connect 23 0 24 0;
#X connect 25 0 20 0;
#X connect 26 0 25 0;
#X connect 27 0 22 0;
#X connect 28 0 14 0;
#X connect 29 0 4 0;
#X connect 30 0 29 1;
#X connect 31 0 28 1;
#X connect 32 0 27 1;
#X connect 33 0 40 0;
#X connect 34 0 35 0;
#X connect 34 0 35 1;
#X connect 35 0 37 1;
#X connect 36 0 37 0;
#X connect 37 0 38 0;
#X connect 39 0 34 0;
#X connect 40 0 39 0;
#X connect 41 0 36 0;
#X connect 42 0 49 0;
#X connect 43 0 44 0;
#X connect 43 0 44 1;
#X connect 44 0 46 1;
#X connect 45 0 46 0;
#X connect 46 0 47 0;
#X connect 48 0 43 0;
#X connect 49 0 48 0;
#X connect 50 0 45 0;
#X connect 51 0 41 1;
#X connect 52 0 50 1;
#X connect 53 0 30 0;
#X connect 53 0 2 0;
#X connect 53 0 1 0;
#X connect 54 0 31 0;
#X connect 54 0 11 0;
#X connect 54 0 12 0;
#X connect 55 0 32 0;
#X connect 55 0 19 0;
#X connect 55 0 20 0;
#X connect 56 0 51 0;
#X connect 56 0 33 0;
#X connect 56 0 34 0;
#X connect 57 0 52 0;
#X connect 57 0 42 0;
#X connect 57 0 43 0;
